<svg display="none" width="0" height="0" version="1.1" xmlns="http://www.w3.org/2000/svg" xmlns:xlink="http://www.w3.org/1999/xlink">
<defs>
<symbol id="icon-ltr" viewBox="0 0 1024 1024">
	<title>ltr</title>
	<path class="path1" d="M512 0c-141.384 0-256 114.616-256 256s114.616 256 256 256v512h128v-896h128v896h128v-896h128v-128h-512zM0 704l256-256-256-256z"></path>
</symbol>
<symbol id="icon-google-plus" viewBox="0 0 1024 1024">
	<title>google-plus</title>
	<path class="path1" d="M559.066 64c0 0-200.956 0-267.94 0-120.12 0-233.17 91.006-233.17 196.422 0 107.726 81.882 194.666 204.088 194.666 8.498 0 16.756-0.17 24.842-0.752-7.93 15.186-13.602 32.288-13.602 50.042 0 29.938 16.104 54.21 36.468 74.024-15.386 0-30.242 0.448-46.452 0.448-148.782-0.002-263.3 94.758-263.3 193.020 0 96.778 125.542 157.314 274.334 157.314 169.624 0 263.306-96.244 263.306-193.028 0-77.6-22.896-124.072-93.686-174.134-24.216-17.144-70.53-58.836-70.53-83.344 0-28.72 8.196-42.868 51.428-76.646 44.312-34.624 75.672-83.302 75.672-139.916 0-67.406-30.020-133.098-86.372-154.772h84.954l59.96-43.344zM465.48 719.458c2.126 8.972 3.284 18.206 3.284 27.628 0 78.2-50.392 139.31-194.974 139.31-102.842 0-177.116-65.104-177.116-143.3 0-76.642 92.126-140.444 194.964-139.332 24 0.254 46.368 4.116 66.67 10.69 55.826 38.826 95.876 60.762 107.172 105.004zM300.818 427.776c-69.038-2.064-134.636-77.226-146.552-167.86-11.916-90.666 34.37-160.042 103.388-157.99 69.010 2.074 134.638 74.814 146.558 165.458 11.906 90.66-34.39 162.458-103.394 160.392zM832 256v-192h-64v192h-192v64h192v192h64v-192h192v-64z"></path>
</symbol>
<symbol id="icon-google-drive" viewBox="0 0 1024 1024">
	<title>google-drive</title>
	<path class="path1" d="M459.33 659.832l-170.654 295.668h564.654l170.67-295.668zM975.612 576l-292.934-507.5h-341.348l292.956 507.5zM292.836 152.514l-292.836 507.318 170.676 295.668 292.832-507.324z"></path>
</symbol>
<symbol id="icon-facebook2" viewBox="0 0 1024 1024">
	<title>facebook2</title>
	<path class="path1" d="M853.35 0h-682.702c-94.25 0-170.648 76.42-170.648 170.686v682.63c0 94.266 76.398 170.684 170.648 170.684h341.352v-448h-128v-128h128v-96c0-88.366 71.634-160 160-160h160v128h-160c-17.674 0-32 14.328-32 32v96h176l-32 128h-144v448h213.35c94.25 0 170.65-76.418 170.65-170.684v-682.63c0-94.266-76.4-170.686-170.65-170.686z"></path>
</symbol>
<symbol id="icon-feed3" viewBox="0 0 1024 1024">
	<title>feed3</title>
	<path class="path1" d="M853.34 0h-682.654c-93.876 0-170.686 76.812-170.686 170.688v682.628c0 93.934 76.812 170.684 170.688 170.684h682.652c93.876 0 170.66-76.748 170.66-170.684v-682.628c0-93.876-76.784-170.688-170.66-170.688zM278.944 831.248c-47.97 0-86.944-38.692-86.944-86.628 0-47.684 38.972-86.812 86.944-86.812 48.158 0 87.060 39.128 87.060 86.812-0.002 47.936-38.904 86.628-87.060 86.628zM497.468 831.996c0-81.81-31.808-158.818-89.46-216.444-57.714-57.75-134.376-89.626-215.904-89.626v-125.186c237.652 0 431.126 193.442 431.126 431.254l-125.762 0.002zM719.628 831.996c0-291.062-236.658-527.94-527.376-527.94v-125.248c360.002 0 652.946 293.124 652.946 653.192l-125.57-0.004z"></path>
</symbol>
<symbol id="icon-dribbble" viewBox="0 0 1024 1024">
	<title>dribbble</title>
	<path class="path1" d="M512.002 1024c-282.32 0-512.002-229.682-512.002-512s229.682-512 512.002-512c282.322 0 511.998 229.682 511.998 512s-229.676 512-511.998 512zM943.798 582.086c-14.962-4.72-135.364-40.632-272.41-18.698 57.204 157.186 80.478 285.208 84.958 311.808 98.114-66.336 167.958-171.426 187.452-293.11zM682.832 915.238c-6.506-38.37-31.898-172.090-93.298-331.64-0.96 0.328-1.922 0.64-2.88 0.972-246.67 85.958-335.216 257.016-343.086 273.104 74.15 57.824 167.336 92.32 268.436 92.32 60.58 0 118.318-12.39 170.828-34.756zM187.098 805.078c9.908-16.96 129.93-215.684 355.476-288.594 5.704-1.84 11.448-3.57 17.236-5.2-10.98-24.844-22.94-49.714-35.456-74.216-218.398 65.36-430.324 62.63-449.46 62.236-0.132 4.442-0.222 8.89-0.222 13.366 0 112.32 42.58 214.874 112.426 292.408zM83.912 423.096c19.558 0.26 199.736 1.042 404.302-53.282-72.46-128.812-150.612-237.11-162.142-252.92-122.348 57.708-213.802 170.496-242.16 306.202zM409.518 87.5c12.088 16.184 91.518 124.348 163.18 256.014 155.508-58.284 221.34-146.77 229.208-157.974-77.23-68.518-178.782-110.2-289.902-110.2-35.29 0-69.6 4.232-102.486 12.16zM850.522 236.112c-9.216 12.474-82.504 106.418-244.202 172.434 10.178 20.832 19.934 42.018 29.016 63.344 3.216 7.56 6.354 15.084 9.418 22.57 145.518-18.298 290.104 11.028 304.526 14.078-0.968-103.224-37.85-198.010-98.758-272.426z"></path>
</symbol>
<symbol id="icon-github" viewBox="0 0 1024 1024">
	<title>github</title>
	<path class="path1" d="M512.008 12.642c-282.738 0-512.008 229.218-512.008 511.998 0 226.214 146.704 418.132 350.136 485.836 25.586 4.738 34.992-11.11 34.992-24.632 0-12.204-0.48-52.542-0.696-95.324-142.448 30.976-172.504-60.41-172.504-60.41-23.282-59.176-56.848-74.916-56.848-74.916-46.452-31.778 3.51-31.124 3.51-31.124 51.4 3.61 78.476 52.766 78.476 52.766 45.672 78.27 119.776 55.64 149.004 42.558 4.588-33.086 17.852-55.68 32.506-68.464-113.73-12.942-233.276-56.85-233.276-253.032 0-55.898 20.004-101.574 52.76-137.428-5.316-12.9-22.854-64.972 4.952-135.5 0 0 43.006-13.752 140.84 52.49 40.836-11.348 84.636-17.036 128.154-17.234 43.502 0.198 87.336 5.886 128.256 17.234 97.734-66.244 140.656-52.49 140.656-52.49 27.872 70.528 10.35 122.6 5.036 135.5 32.82 35.856 52.694 81.532 52.694 137.428 0 196.654-119.778 239.95-233.79 252.624 18.364 15.89 34.724 47.046 34.724 94.812 0 68.508-0.596 123.644-0.596 140.508 0 13.628 9.222 29.594 35.172 24.566 203.322-67.776 349.842-259.626 349.842-485.768 0-282.78-229.234-511.998-511.992-511.998z"></path>
</symbol>
<symbol id="icon-finder" viewBox="0 0 1024 1024">
	<title>finder</title>
	<path class="path1" d="M569.226 778.256c-0.002-0.044-0.002-0.088-0.004-0.132 0.002 0.044 0.002 0.088 0.004 0.132z"></path>
	<path class="path2" d="M570.596 814.538c-0.012-0.234-0.022-0.466-0.032-0.702 0.010 0.234 0.020 0.466 0.032 0.702z"></path>
	<path class="path3" d="M569.814 796.312c-0.006-0.178-0.012-0.356-0.020-0.536 0.010 0.182 0.016 0.358 0.020 0.536z"></path>
	<path class="path4" d="M960 0h-896c-35.2 0-64 28.8-64 64v896c0 35.2 28.8 64 64 64h493.832c0.044 0 0.088 0.006 0.132 0.006 0.042 0 0.084-0.006 0.126-0.006h401.91c35.2 0 64-28.8 64-64v-896c0-35.2-28.8-64-64-64zM192 224c0-17.672 14.328-32 32-32s32 14.328 32 32v64c0 17.672-14.328 32-32 32s-32-14.328-32-32v-64zM960 960h-375.058c-6.7-42.082-10.906-85.476-13.388-127.604 0.006 0.116 0.010 0.228 0.018 0.344-19.696 2.146-39.578 3.26-59.572 3.26-133.65 0-262.382-48.656-362.484-137.006-14.906-13.156-16.326-35.906-3.168-50.812 13.158-14.904 35.906-16.326 50.814-3.168 86.936 76.728 198.748 118.986 314.838 118.986 19.086 0 38.052-1.166 56.816-3.416-2.192-118.194 6.876-211.914 7.026-213.404 0.898-8.996-2.050-17.952-8.118-24.654-6.066-6.702-14.682-10.526-23.724-10.526h-95.174c1.384-34.614 5.082-93.814 14.958-160.188 18.864-126.76 51.994-225.77 96.152-287.812h400.064v896z"></path>
	<path class="path5" d="M800 320c-17.674 0-32-14.328-32-32v-64c0-17.672 14.326-32 32-32s32 14.328 32 32v64c0 17.672-14.326 32-32 32z"></path>
	<path class="path6" d="M540.496 835.232c-3.646 0.192-7.298 0.336-10.956 0.454 3.658-0.116 7.31-0.264 10.956-0.454z"></path>
	<path class="path7" d="M512 836c4.692 0 9.374-0.074 14.050-0.196-4.676 0.122-9.358 0.196-14.050 0.196z"></path>
	<path class="path8" d="M539.074 763.202c0.784-0.044 1.568-0.084 2.352-0.132-0.782 0.048-1.568 0.088-2.352 0.132z"></path>
	<path class="path9" d="M525.084 763.8c1.074-0.030 2.146-0.072 3.218-0.11-1.072 0.038-2.144 0.082-3.218 0.11z"></path>
	<path class="path10" d="M877.65 648.182c-13.156-14.91-35.908-16.322-50.812-3.168-72.642 64.114-162.658 104.136-258.022 115.57 0.43 23.278 1.294 47.496 2.754 72.156 111.954-12.21 217.786-58.614 302.912-133.746 14.908-13.156 16.326-35.906 3.168-50.812z"></path>
	<path class="path11" d="M571.498 832.748c-4.606 0.5-9.222 0.936-13.848 1.322 4.626-0.384 9.244-0.822 13.848-1.322z"></path>
	<path class="path12" d="M555.488 834.242c-3.906 0.312-7.822 0.576-11.742 0.806 3.92-0.226 7.834-0.496 11.742-0.806z"></path>
</symbol>
<symbol id="icon-paypal2" viewBox="0 0 1024 1024">
	<title>paypal2</title>
	<path class="path1" d="M880.634 130.774c25.698 12.576 48.094 30.486 64.502 52.482 34.536 46.3 44.236 109.372 28.836 187.466-15.56 79.026-50.416 145.734-101.166 194.044-9.282 9.702-19.222 18.746-29.804 27.080-54.356 42.802-122.998 65.428-198.508 65.428h-240.060l-64.564 302.726h-132.424l10.086-46.3h46.128l64.564-302.726h188.27c180.25 0 330.938-111.078 371.258-299.936 45.722-213.834-107.598-311.038-239.41-311.038h-449.278l-199.064 913.7h152.032l-24.032 110.3h263.66l64.564-302.726h188.27c180.25 0 330.938-111.078 371.258-299.936 33.716-157.68-40.804-251.932-135.118-290.564zM640.262 311.038c-13.724 59.060-64.428 108.040-120.656 121.368l30.738-136.022h92.986c-0.728 4.806-1.722 9.69-3.068 14.654zM422.344 186.082h129.132c36.76 0 66.508 18.004 81.87 46.3h-134.154l-46.016 203.63h-87.312l56.48-249.93z"></path>
</symbol>
<symbol id="icon-chrome" viewBox="0 0 1024 1024">
	<title>chrome</title>
	<path class="path1" d="M258.278 446.542l-146.532-253.802c93.818-117.464 238.234-192.74 400.254-192.74 187.432 0 351.31 100.736 440.532 251h-417.77c-7.504-0.65-15.092-1-22.762-1-121.874 0-224.578 83.644-253.722 196.542zM695.306 325h293.46c22.74 57.93 35.234 121.004 35.234 187 0 280.826-226.1 508.804-506.186 511.926l209.394-362.678c29.48-42.378 46.792-93.826 46.792-149.248 0-73.17-30.164-139.42-78.694-187zM326 512c0-102.56 83.44-186 186-186s186 83.44 186 186c0 102.56-83.44 186-186 186s-186-83.44-186-186zM582.182 764.442l-146.578 253.878c-246.532-36.884-435.604-249.516-435.604-506.32 0-91.218 23.884-176.846 65.696-251.024l209.030 362.054c41.868 89.112 132.476 150.97 237.274 150.97 24.3 0 47.836-3.34 70.182-9.558z"></path>
</symbol>
<symbol id="icon-firefox" viewBox="0 0 1024 1024">
	<title>firefox</title>
	<path class="path1" d="M1022.526 334.14l-11.86 76.080c0 0-16.954-140.856-37.732-193.514-31.846-80.688-46.014-80.040-46.108-79.922 21.33 54.204 17.462 83.324 17.462 83.324s-37.792-102.998-137.712-135.768c-110.686-36.282-170.57-26.364-177.488-24.486-1.050-0.008-2.064-0.010-3.030-0.010 0.818 0.062 1.612 0.146 2.426 0.212-0.034 0.020-0.090 0.042-0.082 0.052 0.45 0.548 122.306 21.302 143.916 50.996 0 0-51.76 0-103.272 14.842-2.328 0.666 189.524 23.964 228.746 215.674 0 0-21.030-43.876-47.040-51.328 17.106 52.036 12.714 150.776-3.576 199.85-2.096 6.312-4.24-27.282-36.328-41.75 10.28 73.646-0.616 190.456-51.708 222.632-3.982 2.504 32.030-115.31 7.242-69.762-142.708 218.802-311.404 100.972-387.248 49.11 38.866 8.462 112.654-1.318 145.314-25.612 0.042-0.030 0.078-0.056 0.118-0.086 35.468-24.252 56.472-41.964 75.334-37.772 18.874 4.214 31.438-14.726 16.78-31.53-14.676-16.838-50.314-39.978-98.524-27.366-34 8.904-76.134 46.522-140.448 8.432-49.364-29.25-54.012-53.546-54.45-70.376 1.218-5.966 2.754-11.536 4.576-16.624 5.682-15.87 22.912-20.658 32.494-24.438 16.256 2.792 30.262 7.862 44.968 15.406 0.19-4.894 0.252-11.39-0.018-18.76 1.41-2.802 0.538-11.252-1.722-21.58-1.302-10.308-3.42-20.974-6.752-30.692 0.012-0.002 0.020-0.010 0.030-0.014 0.056-0.018 0.108-0.040 0.156-0.070 0.078-0.044 0.146-0.112 0.208-0.19 0.012-0.020 0.030-0.034 0.044-0.052 0.082-0.124 0.154-0.272 0.198-0.466 1.020-4.618 12.022-13.524 25.718-23.1 12.272-8.58 26.702-17.696 38.068-24.752 10.060-6.248 17.72-10.882 19.346-12.098 0.618-0.466 1.358-1.012 2.164-1.636 0.15-0.116 0.3-0.232 0.454-0.354 0.094-0.074 0.19-0.148 0.286-0.226 5.41-4.308 13.484-12.448 15.178-29.578 0.004-0.042 0.010-0.080 0.012-0.122 0.050-0.504 0.092-1.014 0.13-1.534 0.028-0.362 0.050-0.726 0.072-1.096 0.014-0.284 0.032-0.566 0.044-0.856 0.030-0.674 0.050-1.364 0.060-2.064 0-0.040 0.002-0.076 0.004-0.116 0.022-1.658-0.006-3.386-0.104-5.202-0.054-1.014-0.126-1.93-0.298-2.762-0.008-0.044-0.018-0.092-0.028-0.136-0.018-0.082-0.036-0.164-0.058-0.244-0.036-0.146-0.076-0.292-0.122-0.43-0.006-0.018-0.010-0.032-0.016-0.046-0.052-0.16-0.112-0.314-0.174-0.464-0.004-0.006-0.004-0.010-0.006-0.016-1.754-4.108-8.32-5.658-35.442-6.118-0.026-0.002-0.050-0.002-0.076-0.002v0c-11.066-0.188-25.538-0.194-44.502-0.118-33.25 0.134-51.628-32.504-57.494-45.132 8.040-44.46 31.276-76.142 69.45-97.626 0.722-0.406 0.58-0.742-0.274-0.978 7.464-4.514-90.246-0.124-135.186 57.036-39.888-9.914-74.654-9.246-104.616-2.214-5.754-0.162-12.924-0.88-21.434-2.652-19.924-18.056-48.448-51.402-49.976-91.208 0 0-0.092 0.072-0.252 0.204-0.020-0.382-0.056-0.76-0.072-1.142 0 0-60.716 46.664-51.628 173.882-0.022 2.036-0.064 3.986-0.12 5.874-16.432 22.288-24.586 41.020-25.192 45.156-14.56 29.644-29.334 74.254-41.356 141.98 0 0 8.408-26.666 25.284-56.866-12.412 38.022-22.164 97.156-16.436 185.856 0 0 1.514-19.666 6.874-47.994 4.186 55.010 22.518 122.924 68.858 202.788 88.948 153.32 225.67 230.74 376.792 242.616 26.836 2.212 54.050 2.264 81.424 0.186 2.516-0.178 5.032-0.364 7.55-0.574 30.964-2.174 62.134-6.852 93.238-14.366 425.172-102.798 378.942-616.198 378.942-616.198z"></path>
</symbol>
</defs>
</svg>
